HIERARCHY
ROOT Hips
{
	OFFSET 0.000000 0.000000 0.000000
	CHANNELS 6 Xposition Yposition Zposition Xrotation Yrotation Zrotation
	JOINT LeftUpLeg_virtual
	{
		OFFSET 0.000000 0.000000 0.000000
		CHANNELS 3 Xrotation Yrotation Zrotation
		JOINT LeftUpLeg
		{
			OFFSET 10.205400 -3.823500 0.155100
			CHANNELS 3 Xrotation Yrotation Zrotation
			JOINT LeftLeg
			{
				OFFSET 0.708757 -12.982077 0.567790
				CHANNELS 3 Xrotation Yrotation Zrotation
				JOINT LeftFoot
				{
					OFFSET -0.708756 -10.717838 -2.184338
					CHANNELS 3 Xrotation Yrotation Zrotation
					JOINT LeftToeBase
					{
						OFFSET 0.108149 -7.191104 7.560241
						CHANNELS 3 Xrotation Yrotation Zrotation
						JOINT LeftToe_End
						{
							OFFSET 0.070230 0.081724 4.490308
							CHANNELS 3 Xrotation Yrotation Zrotation
							End Site
							{
								OFFSET 0 0 0
							}
						}
					}
				}
			}
		}
	}
	JOINT RightUpLeg_virtual
	{
		OFFSET 0.000000 0.000000 0.000000
		CHANNELS 3 Xrotation Yrotation Zrotation
		JOINT RightUpLeg
		{
			OFFSET -10.205400 -3.823500 0.005500
			CHANNELS 3 Xrotation Yrotation Zrotation
			JOINT RightLeg
			{
				OFFSET -0.708756 -12.982134 0.610632
				CHANNELS 3 Xrotation Yrotation Zrotation
				JOINT RightFoot
				{
					OFFSET 0.708754 -10.717769 -1.945823
					CHANNELS 3 Xrotation Yrotation Zrotation
					JOINT RightToeBase
					{
						OFFSET -0.108140 -7.191069 7.372968
						CHANNELS 3 Xrotation Yrotation Zrotation
						JOINT RightToe_End
						{
							OFFSET -0.070227 0.081735 4.479403
							CHANNELS 3 Xrotation Yrotation Zrotation
							End Site
							{
								OFFSET 0 0 0
							}
						}
					}
				}
			}
		}
	}
	JOINT Spine_virtual
	{
		OFFSET 0.000000 0.000000 0.000000
		CHANNELS 3 Xrotation Yrotation Zrotation
		JOINT Spine
		{
			OFFSET 0.000000 6.876099 0.125700
			CHANNELS 3 Xrotation Yrotation Zrotation
			JOINT Spine1
			{
				OFFSET 0.000000 5.730043 0.104720
				CHANNELS 3 Xrotation Yrotation Zrotation
				JOINT Spine1_split
				{
					OFFSET 0.000000 5.730043 0.104720
					CHANNELS 3 Xrotation Yrotation Zrotation
					JOINT Spine2
					{
						OFFSET 0.000000 5.730043 0.104720
						CHANNELS 3 Xrotation Yrotation Zrotation
						JOINT Neck_virtual
						{
							OFFSET 0.000000 0.000000 0.000000
							CHANNELS 3 Xrotation Yrotation Zrotation
							JOINT Neck
							{
								OFFSET 0.000000 10.314075 0.188496
								CHANNELS 3 Xrotation Yrotation Zrotation
								JOINT Head
								{
									OFFSET 0.000000 7.643700 -2.377400
									CHANNELS 3 Xrotation Yrotation Zrotation
									JOINT HeadTop_End
									{
										OFFSET 0.000000 43.788605 -13.619600
										CHANNELS 3 Xrotation Yrotation Zrotation
										End Site
										{
											OFFSET 0 0 0
										}
									}
								}
							}
						}
						JOINT LeftShoulder_virtual
						{
							OFFSET 0.000000 0.000000 0.000000
							CHANNELS 3 Xrotation Yrotation Zrotation
							JOINT LeftShoulder
							{
								OFFSET 2.196100 4.412489 0.087492
								CHANNELS 3 Xrotation Yrotation Zrotation
								JOINT LeftShoulder_split
								{
									OFFSET 2.196100 4.412489 0.087492
									CHANNELS 3 Xrotation Yrotation Zrotation
									JOINT LeftArm
									{
										OFFSET 8.771219 -2.981674 -0.026999
										CHANNELS 3 Xrotation Yrotation Zrotation
										JOINT LeftForeArm
										{
											OFFSET 8.512804 0.000000 -0.000000
											CHANNELS 3 Xrotation Yrotation Zrotation
											JOINT LeftHand
											{
												OFFSET 18.484802 0.000000 -0.000000
												CHANNELS 3 Xrotation Yrotation Zrotation
												End Site
												{
													OFFSET 0 0 0
												}
											}
										}
									}
								}
							}
						}
						JOINT RightShoulder_virtual
						{
							OFFSET 0.000000 0.000000 0.000000
							CHANNELS 3 Xrotation Yrotation Zrotation
							JOINT RightShoulder
							{
								OFFSET -2.196100 4.412496 0.070690
								CHANNELS 3 Xrotation Yrotation Zrotation
								JOINT RightShoulder_split
								{
									OFFSET -2.196100 4.412496 0.070690
									CHANNELS 3 Xrotation Yrotation Zrotation
									JOINT RightArm
									{
										OFFSET -8.771282 -2.981682 -0.094208
										CHANNELS 3 Xrotation Yrotation Zrotation
										JOINT RightForeArm
										{
											OFFSET -8.494598 0.000000 0.000000
											CHANNELS 3 Xrotation Yrotation Zrotation
											JOINT RightHand
											{
												OFFSET -18.483803 0.000000 0.000001
												CHANNELS 3 Xrotation Yrotation Zrotation
												End Site
												{
													OFFSET 0 0 0
												}
											}
										}
									}
								}
							}
						}
					}
				}
			}
		}
	}
}
MOTION
Frames: 7
Frame Time: 0.03333333
-1.100896 28.579987 -2.136860 0.000000 0.000000 0.000000 1.618747 -52.477505 4.777299 -33.152341 15.933155 29.155287 48.285995 -3.525433 -7.986503 -17.117586 11.297543 -17.993401 3.985568 1.426083 -3.056715 0.000000 0.000000 0.000000 0.608370 -50.114737 4.215597 -25.720411 -2.946757 -27.179667 49.063769 13.940929 -6.014692 -27.611607 -10.721088 36.488947 8.911723 10.011631 -22.653658 0.000000 0.000000 0.000000 -2.990546 -44.483492 0.362837 10.405971 -3.547759 -1.165813 7.480006 -1.668117 -7.375015 0.298664 -0.486866 0.217477 0.000000 0.000000 0.000000 10.535129 0.404087 -5.028160 -1.776099 26.004682 -0.720924 -36.669267 -11.716507 10.086841 0.000000 0.000000 0.000000 10.065734 -1.021367 -6.141180 1.393121 -8.314548 -6.660310 5.667125 -11.600865 1.657444 -44.058453 17.204365 -30.406042 35.436459 -34.670546 22.539124 0.000000 0.000000 0.000000 7.752216 -2.206198 -6.733118 -7.193359 3.510733 1.777771 9.431654 -5.913944 5.863826 -51.160350 -5.945135 41.697362 93.050051 71.598325 -83.586694 0.000000 0.000000 0.000000 
-1.222283 28.523050 -2.265211 0.000000 0.000000 0.000000 1.619574 -52.557247 4.790667 -32.925928 16.155501 29.026504 48.732546 -3.788742 -7.785759 -17.835506 11.312171 -17.403701 3.746620 1.385592 -3.282847 0.000000 0.000000 0.000000 0.722279 -49.997975 4.154407 -25.588211 -3.296506 -27.109622 49.441656 14.048066 -5.958324 -28.415346 -11.072304 35.295023 10.656980 9.896510 -22.582941 0.000000 0.000000 0.000000 -2.992570 -44.346595 0.517177 10.404798 -3.777532 -1.294994 7.249698 -1.480205 -7.246672 0.080739 -0.403267 0.310923 0.000000 0.000000 0.000000 10.203774 0.439629 -4.921563 -3.169912 25.784989 0.529123 -36.907528 -12.258170 8.940546 0.000000 0.000000 0.000000 9.816901 -0.825258 -6.196763 1.493334 -7.728830 -6.451580 6.570422 -11.656953 1.934922 -45.154066 16.957437 -31.554572 36.337983 -33.268994 22.851581 0.000000 0.000000 0.000000 7.621337 -2.037009 -6.747144 -7.577977 3.932013 2.075238 9.307099 -4.630194 5.323525 -48.450490 -6.998094 41.625290 100.587827 72.236504 -91.072636 0.000000 0.000000 0.000000 
-1.454652 28.490274 -2.359407 0.000000 0.000000 0.000000 1.358457 -52.615345 4.487523 -32.564126 16.036014 29.010337 49.630060 -4.509206 -7.483525 -18.147375 10.860915 -16.997529 3.432655 1.315216 -3.582473 0.000000 0.000000 0.000000 0.599567 -49.864626 3.809811 -24.672856 -4.074540 -27.046352 49.307481 14.403576 -5.894116 -28.720218 -11.874219 35.182301 10.335050 9.833103 -21.973210 0.000000 0.000000 0.000000 -3.031658 -44.190156 0.466986 10.233392 -3.982606 -1.246172 7.028662 -1.443476 -6.928090 -0.015906 -0.355910 0.290193 0.000000 0.000000 0.000000 9.722765 0.398414 -4.610520 -4.413183 26.101882 2.063403 -37.697931 -10.443364 7.786760 0.000000 0.000000 0.000000 9.571143 -0.818303 -6.013243 1.571162 -6.457728 -5.861529 6.296236 -11.625552 1.832436 -43.938330 16.850032 -30.938763 35.498276 -34.995068 22.614357 0.000000 0.000000 0.000000 7.331451 -2.022293 -6.479866 -8.020906 4.006546 2.234624 9.792638 -3.484779 4.675803 -42.085945 -7.451993 41.145896 107.597896 71.871075 -98.778694 0.000000 0.000000 0.000000 
-1.755014 28.553656 -2.366831 0.000000 0.000000 0.000000 0.863187 -52.285050 3.877873 -31.870715 15.715357 28.948555 50.098153 -5.487816 -7.110368 -18.002910 10.011335 -16.798085 2.526063 1.222206 -3.504065 0.000000 0.000000 0.000000 0.214378 -49.641019 3.188412 -22.658391 -5.318927 -26.859961 48.337525 14.752295 -5.703803 -28.753430 -13.195058 35.758933 8.385736 9.701667 -20.933485 0.000000 0.000000 0.000000 -3.010595 -43.932473 0.302897 9.944688 -4.072855 -1.135938 6.818247 -1.521914 -6.528037 0.059239 -0.287195 0.189463 0.000000 0.000000 0.000000 9.161063 0.323353 -4.177757 -5.341422 26.627643 3.942154 -38.584244 -6.374583 7.042275 0.000000 0.000000 0.000000 9.273608 -0.884626 -5.646432 1.584446 -4.354340 -4.678052 5.447429 -11.685652 1.704927 -40.990991 17.771667 -28.072832 33.463860 -40.670314 22.284013 0.000000 0.000000 0.000000 6.937988 -2.103559 -6.017881 -8.523742 3.543303 2.133757 10.254668 -3.091623 4.003499 -33.771802 -7.376227 40.104716 110.297658 70.922253 -102.904757 0.000000 0.000000 0.000000 
-2.123952 28.790302 -2.260715 0.000000 0.000000 0.000000 0.274700 -51.549476 3.061060 -30.510506 15.281604 28.593009 49.352389 -6.472600 -6.701907 -17.510167 8.953135 -16.576748 1.242391 1.058799 -2.933574 0.000000 0.000000 0.000000 -0.192199 -49.147640 2.489377 -19.328570 -7.070400 -26.356493 45.906606 14.814142 -5.220639 -28.862453 -14.913817 36.214858 6.668550 9.273280 -19.858181 0.000000 0.000000 0.000000 -2.884313 -43.487835 0.132870 9.591431 -3.966532 -1.101253 6.548710 -1.580363 -6.109018 0.223855 -0.204824 0.094328 0.000000 0.000000 0.000000 8.632201 0.301827 -3.726073 -5.865570 26.974797 6.242147 -39.291681 -0.991560 6.927010 0.000000 0.000000 0.000000 8.820662 -0.881814 -5.174711 1.404408 -1.397235 -2.921075 4.043700 -11.885184 1.745113 -37.648665 20.562035 -22.878456 30.680561 -49.587194 21.835493 0.000000 0.000000 0.000000 6.436265 -2.134949 -5.434379 -9.136873 2.508660 1.582523 10.478046 -4.223172 3.747073 -25.061009 -7.010841 38.373307 107.996158 69.850241 -102.679436 0.000000 0.000000 0.000000 
-2.555759 29.243958 -2.043320 0.000000 0.000000 0.000000 -0.266949 -50.368786 2.177143 -28.506814 14.882156 27.904000 47.114143 -7.220508 -6.356621 -16.738746 7.983802 -16.107826 0.676270 0.798864 -2.216467 0.000000 0.000000 0.000000 -0.515971 -48.347351 1.764337 -14.795318 -9.243672 -25.424107 41.588093 14.553038 -4.286658 -29.153088 -16.711055 36.040306 6.408359 8.613206 -19.071020 0.000000 0.000000 0.000000 -2.457151 -42.857552 0.048135 9.241737 -3.639216 -1.276164 6.130607 -1.509374 -5.719826 0.259444 -0.154299 0.033212 0.000000 0.000000 0.000000 8.265565 0.406709 -3.353143 -5.840750 26.844440 8.864147 -39.781040 4.217655 7.360464 0.000000 0.000000 0.000000 8.121149 -0.703319 -4.646217 0.880392 2.410371 -0.501043 2.555682 -11.923189 2.184518 -35.572530 24.985952 -15.919916 27.312180 -60.005616 20.882629 0.000000 0.000000 0.000000 5.856210 -2.048356 -4.814483 -9.906752 0.906448 0.573414 10.396401 -6.380919 3.444556 -17.379814 -6.764359 35.995128 102.380970 68.742582 -99.477491 0.000000 0.000000 0.000000 
-3.046737 29.881044 -1.744831 0.000000 0.000000 0.000000 -0.570157 -48.918406 1.397284 -26.138389 14.626211 27.057113 43.591572 -7.715563 -6.102450 -15.531809 7.248408 -15.546373 1.012705 0.484308 -1.371969 0.000000 0.000000 0.000000 -0.528499 -47.261234 1.186146 -9.479997 -11.631302 -24.035948 35.469288 14.161160 -3.016163 -29.211268 -18.148911 35.435660 7.227531 8.081185 -18.852855 0.000000 0.000000 0.000000 -1.827194 -42.019833 0.032002 8.962081 -3.100531 -1.681160 5.489624 -1.275546 -5.356488 0.195408 -0.099409 0.011213 0.000000 0.000000 0.000000 8.065399 0.669022 -3.108304 -5.130028 26.241921 11.590612 -40.000494 8.246789 8.098030 0.000000 0.000000 0.000000 7.216181 -0.368604 -4.154056 -0.074980 6.730462 2.521022 1.281039 -12.217752 3.412474 -35.704565 30.012835 -7.840003 23.415311 -69.809417 18.984470 0.000000 0.000000 0.000000 5.273212 -1.806912 -4.218204 -10.822963 -1.163601 -0.809173 10.170179 -8.002665 2.943746 -11.010754 -7.345030 33.386152 96.127796 67.540305 -95.581701 0.000000 0.000000 0.000000 
